<svg width="12" height="13" viewBox="0 0 12 13" fill="none" xmlns="http://www.w3.org/2000/svg">
<path d="M2.52422 4.35058C2.29922 4.43261 2.15625 4.6412 2.15625 4.88964C2.15625 4.9787 2.175 5.06776 2.20078 5.12636C2.22422 5.17792 3.00234 6.10605 3.93047 7.18886C5.21484 8.68651 5.64375 9.17167 5.72109 9.2162C5.80547 9.26542 5.85469 9.2748 6 9.2748C6.14531 9.2748 6.19453 9.26542 6.27891 9.2162C6.35625 9.17167 6.78516 8.68651 8.06953 7.18886C9.10313 5.98183 9.77344 5.18026 9.80156 5.11698C9.83672 5.03964 9.84609 4.9787 9.83906 4.85683C9.82734 4.65292 9.74063 4.50292 9.57656 4.3998L9.46172 4.32948L6.0375 4.3248C3.21797 4.32011 2.59688 4.3248 2.52422 4.35058Z" fill="#403C4E"/>
</svg>
